# xmcd CD database file
#
# Track frame offsets:
#	150
#	12202
#	22252
#	35946
#	52623
#	72363
#	84099
#	102209
#	118283
#
# Disc length: 1710 seconds
#
# Revision: 0
# Processed by: cddbd v1.5.1PL0 Copyright (c) Steve Scherf et al.
# Submitted via: CDex 1.50
#
DISCID=7006ac09
DTITLE=Guignol - Guignol
DYEAR=2004
DGENRE=Jazz
TTITLE0=Bad Day at the U.N.
TTITLE1=Grifter's Delight
TTITLE2=Tea House
TTITLE3=Salt Chunk Mary Fight Song
TTITLE4=King of Uruk
TTITLE5=Big Lazy
TTITLE6=Undergroung at the Dressler
TTITLE7=The Wind-Up Bird
TTITLE8=All Or Nothing Machine
EXTD=YEAR: 2004
EXTT0=
EXTT1=
EXTT2=
EXTT3=
EXTT4=
EXTT5=
EXTT6=
EXTT7=
EXTT8=
PLAYORDER=
